<svg version="1.1" id="Layer_1" xmlns="http://www.w3.org/2000/svg" x="0" y="0" viewBox="0 0 180 180" xml:space="preserve"><style>.st2{fill:#fff}</style><g id="Layer_18"><circle cx="90" cy="90" r="90" fill="#006950"/><path d="M136.05 55v.07l.07-.05zm-2.78.23l.71.2L90 90.11 45.86 55.3l.14-.07h-1.05v.63L90 91.39l45.05-35.53v-.63z" fill="#fff700"/><path class="st2" d="M136.05 54.23h-92.1v70.78h92.1V54.23zm-1 69.77h-90.1V55.22h90.09v.64l.01 68.14z"/><path transform="rotate(-54.823 73.133 15.196)" class="st2" d="M71.09 14.7h4.08v1h-4.08z"/><path transform="rotate(-54.823 63.727 28.526)" class="st2" d="M61.69 28.03h4.08v1h-4.08z"/><path transform="rotate(-54.823 54.32 41.87)" class="st2" d="M52.28 41.37h4.08v1h-4.08z"/><path transform="rotate(-54.823 59.022 35.189)" class="st2" d="M56.98 34.69h4.08v1h-4.08z"/><path transform="rotate(-54.823 68.436 21.864)" class="st2" d="M66.4 21.37h4.08v1H66.4z"/><path transform="rotate(-54.803 49.665 48.602)" class="st2" d="M47.63 48.1h4.08v1h-4.08z"/><path transform="rotate(-54.823 77.838 8.529)" class="st2" d="M75.8 8.03h4.08v1H75.8z"/><path transform="rotate(-54.823 82.224 2.324)" class="st2" d="M80.18 1.83h4.08v1h-4.08z"/><path transform="rotate(-52.549 123.096 115.086)" class="st2" d="M122.6 113.04h1v4.1h-1z"/><path transform="rotate(-52.549 103.56 100.121)" class="st2" d="M103.06 98.07h1v4.1h-1z"/><path transform="rotate(-52.504 129.573 120.033)" class="st2" d="M129.07 117.98h1v4.1h-1z"/><path transform="rotate(-52.549 97.036 95.13)" class="st2" d="M96.54 93.08h1v4.1h-1z"/><path transform="rotate(-52.549 77.504 80.166)" class="st2" d="M77.01 78.12h1v4.1h-1z"/><path transform="rotate(-52.549 84.016 85.146)" class="st2" d="M83.52 83.1h1v4.1h-1z"/><path transform="rotate(-52.541 70.984 75.133)" class="st2" d="M70.48 73.08h1v4.1h-1z"/><path transform="rotate(-52.504 110.048 105.057)" class="st2" d="M109.55 103.01h1v4.1h-1z"/><path transform="rotate(-52.549 90.526 90.138)" class="st2" d="M90.03 88.09h1v4.1h-1z"/><path transform="rotate(-52.549 51.444 60.21)" class="st2" d="M50.95 58.16h1v4.1h-1z"/><path transform="rotate(-52.549 57.962 65.21)" class="st2" d="M57.46 63.16h1v4.1h-1z"/><path transform="rotate(-52.504 64.456 70.138)" class="st2" d="M63.96 68.09h1v4.1h-1z"/><path transform="rotate(-52.549 116.586 110.094)" class="st2" d="M116.09 108.05h1v4.1h-1z"/><path transform="rotate(-18.432 105.936 135.062)" class="st2" d="M103.95 134.57h3.96v1h-3.96z"/><path transform="rotate(-18.432 113.456 132.552)" class="st2" d="M111.47 132.06h3.96v1h-3.96z"/><path transform="rotate(-18.432 120.976 130.042)" class="st2" d="M118.99 129.54h3.96v1h-3.96z"/><path transform="rotate(-18.432 128.496 127.531)" class="st2" d="M126.51 127.03h3.96v1h-3.96z"/><path transform="rotate(-18.432 45.777 155.123)" class="st2" d="M43.79 154.62h3.96v1h-3.96z"/><path transform="rotate(-18.432 53.297 152.613)" class="st2" d="M51.31 152.11h3.96v1h-3.96z"/><path transform="rotate(-18.432 38.257 157.634)" class="st2" d="M36.27 157.14h3.96v1h-3.96z"/><path transform="rotate(-18.432 98.417 137.573)" class="st2" d="M96.43 137.08h3.96v1h-3.96z"/><path transform="rotate(-18.432 90.896 140.072)" class="st2" d="M88.91 139.57h3.96v1h-3.96z"/><path transform="rotate(-18.432 83.376 142.583)" class="st2" d="M81.39 142.08h3.96v1h-3.96z"/><path transform="rotate(-18.432 75.857 145.093)" class="st2" d="M73.87 144.6h3.96v1h-3.96z"/><path transform="rotate(-18.432 68.337 147.603)" class="st2" d="M66.35 147.11h3.96v1h-3.96z"/><path transform="rotate(-18.432 60.816 150.103)" class="st2" d="M58.83 149.6h3.96v1h-3.96z"/><path class="st2" d="M45.03 54.24h-.08v-1.86c-.16-.03-.33-.05-.5-.05s-.34.02-.5.05v1.86h-1.86c-.03.16-.05.33-.05.5s.02.34.05.5h1.86v1.86c.16.03.33.05.5.05s.34-.02.5-.05v-1.86h1.86c.03-.16.05-.33.05-.5s-.02-.34-.05-.5h-1.78z"/><path class="st2" d="M44.46 50.4c-2.4 0-4.34 1.95-4.34 4.34s1.95 4.34 4.34 4.34c2.4 0 4.34-1.95 4.34-4.34 0-2.4-1.95-4.34-4.34-4.34zm0 7.68c-1.84 0-3.34-1.5-3.34-3.34s1.5-3.34 3.34-3.34 3.34 1.5 3.34 3.34-1.5 3.34-3.34 3.34zm91.57 64.04c-.16-.03-.33-.05-.5-.05s-.34.02-.5.05v1.86h-1.86c-.03.16-.05.33-.05.5s.02.34.05.5h1.87v1.87c.16.03.33.05.5.05s.34-.02.5-.05v-1.86h1.87c.03-.16.05-.33.05-.5s-.02-.34-.05-.5h-1.86v-1.87h-.02z"/><path class="st2" d="M135.53 120.14c-2.4 0-4.34 1.95-4.34 4.34s1.95 4.34 4.34 4.34 4.34-1.95 4.34-4.34c0-2.39-1.95-4.34-4.34-4.34zm0 7.69c-1.84 0-3.34-1.5-3.34-3.34s1.5-3.34 3.34-3.34 3.34 1.5 3.34 3.34c0 1.84-1.5 3.34-3.34 3.34z"/></g></svg>